<svg xmlns="http://www.w3.org/2000/svg" viewBox="0 0 42 42" width="42" height="42">
	<style>
		tspan { white-space:pre }
		.shp0 { fill: #ffffff } 
	</style>
	<g id="nav">
		<g id="mainnav">
			<g id="appointment">
				<path id="icon" class="shp0" d="M36.31 4.13L34.43 4.13L34.43 1.01L31.31 1.01L31.31 4.13L10.69 4.13L10.69 1.01L7.57 1.01L7.57 4.13L5.69 4.13C3.11 4.13 1.01 6.23 1.01 8.82L1.01 36.31C1.01 38.89 3.11 40.99 5.69 40.99L36.31 40.99C38.89 40.99 40.99 38.89 40.99 36.31L40.99 8.82C40.99 6.23 38.89 4.13 36.31 4.13ZM37.87 36.31C37.87 37.17 37.17 37.87 36.31 37.87L5.69 37.87C4.83 37.87 4.13 37.17 4.13 36.31L4.13 15.69L37.87 15.69L37.87 36.31ZM37.87 12.56L4.13 12.56L4.13 8.82C4.13 7.95 4.83 7.25 5.69 7.25L7.57 7.25L7.57 10.38L10.69 10.38L10.69 7.25L31.31 7.25L31.31 10.38L34.43 10.38L34.43 7.25L36.31 7.25C37.17 7.25 37.87 7.95 37.87 8.82L37.87 12.56ZM6.94 18.97L10.07 18.97L10.07 22.09L6.94 22.09L6.94 18.97ZM13.19 18.97L16.31 18.97L16.31 22.09L13.19 22.09L13.19 18.97ZM19.44 18.97L22.56 18.97L22.56 22.09L19.44 22.09L19.44 18.97ZM25.69 18.97L28.81 18.97L28.81 22.09L25.69 22.09L25.69 18.97ZM31.93 18.97L35.06 18.97L35.06 22.09L31.93 22.09L31.93 18.97ZM6.94 25.22L10.07 25.22L10.07 28.34L6.94 28.34L6.94 25.22ZM13.19 25.22L16.31 25.22L16.31 28.34L13.19 28.34L13.19 25.22ZM19.44 25.22L22.56 25.22L22.56 28.34L19.44 28.34L19.44 25.22ZM25.69 25.22L28.81 25.22L28.81 28.34L25.69 28.34L25.69 25.22ZM6.94 31.46L10.07 31.46L10.07 34.59L6.94 34.59L6.94 31.46ZM13.19 31.46L16.31 31.46L16.31 34.59L13.19 34.59L13.19 31.46ZM19.44 31.46L22.56 31.46L22.56 34.59L19.44 34.59L19.44 31.46ZM25.69 31.46L28.81 31.46L28.81 34.59L25.69 34.59L25.69 31.46ZM31.93 25.22L35.06 25.22L35.06 28.34L31.93 28.34L31.93 25.22Z" />
			</g>
		</g>
	</g>
</svg>