<svg xmlns="http://www.w3.org/2000/svg" viewBox="0 0 46 43" width="46" height="43">
	<style>
		tspan { white-space:pre }
		.shp0 { fill: #ffffff } 
	</style>
	<g id="feature">
		<g id="items">
			<g id="row">
				<g id="col">
					<path id="icon" class="shp0" d="M14.47 15.41C14.47 14.45 13.7 13.67 12.74 13.67C11.78 13.67 11 14.45 11 15.41C11 16.37 11.78 17.15 12.74 17.15C13.7 17.15 14.47 16.37 14.47 15.41ZM38.8 27.59L33.59 27.59L33.59 25.85L37.51 25.85L37.78 25.83C41.61 25.22 44.01 20.03 44.01 13.67C44.01 7.31 41.61 2.12 37.78 1.51L37.51 1.49L4.05 1.49C2.22 1.49 1.63 3.96 3.27 4.78C3.52 4.91 3.99 5.16 4.59 5.51C5.54 6.05 6.48 6.64 7.37 7.26C6.35 9.26 5.79 11.82 5.79 14.54C5.79 20.66 8.61 25.85 12.74 25.85L12.74 25.85L23.16 25.85L23.16 36.29C23.16 39.17 25.49 41.51 28.37 41.51C30.64 41.51 32.57 40.05 33.29 38.03L38.8 38.03C41.68 38.03 44.01 35.69 44.01 32.81C44.01 29.92 41.68 27.59 38.8 27.59ZM37.34 4.97C38.73 5.32 40.13 8.07 40.46 11.93L24.24 11.93L22.98 9.41C22.68 8.82 22.08 8.45 21.42 8.45L17.95 8.45L17.95 8.45L17.39 8.45C17.39 8.45 17.38 8.45 17.38 8.45L13.74 8.45C13.64 8.3 13.53 8.16 13.42 8.01C13.41 8.01 13.41 8.01 13.41 8.01C13.36 7.95 13.31 7.89 13.26 7.82C13.24 7.8 13.23 7.78 13.21 7.76C13.18 7.72 13.15 7.68 13.11 7.65C13.08 7.6 13.04 7.56 13 7.52C13 7.51 12.99 7.51 12.99 7.5C12.24 6.66 11.28 5.82 10.15 4.97L37.34 4.97L37.34 4.97ZM9.26 14.54C9.26 12.67 9.59 10.93 10.14 9.55C10.38 9.8 10.59 10.04 10.76 10.27C10.8 10.32 10.84 10.38 10.88 10.43C10.9 10.46 10.91 10.49 10.93 10.52C10.94 10.53 10.96 10.55 10.97 10.57C10.99 10.6 11.01 10.63 11.02 10.66C11.03 10.68 11.04 10.69 11.05 10.71C11.07 10.74 11.08 10.77 11.1 10.8C11.1 10.81 11.11 10.82 11.11 10.82C11.13 10.86 11.14 10.89 11.16 10.92C11.44 11.54 12.06 11.93 12.74 11.93L15.99 11.93C16.13 12.74 16.21 13.6 16.21 14.47L16.21 14.61C16.2 17.7 15.29 20.42 14 21.71C13.84 21.86 13.74 21.95 13.66 22.01C13.62 22.03 13.63 22.03 13.58 22.06C13.4 22.17 13.25 22.25 13.12 22.29L13.1 22.3C12.96 22.35 12.84 22.37 12.74 22.37C11.1 22.37 9.26 18.99 9.26 14.54ZM19.69 15.41L19.69 14.61C19.69 14.59 19.69 14.56 19.69 14.54C19.69 14.51 19.69 14.48 19.69 14.45L19.69 11.93L20.35 11.93L21.61 14.45C21.9 15.04 22.5 15.41 23.16 15.41L40.46 15.41C40.13 19.27 38.73 22.02 37.34 22.37L31.85 22.37L24.9 22.37L17.91 22.37C19.02 20.52 19.69 18.08 19.69 15.41ZM28.37 38.03C27.41 38.03 26.64 37.25 26.64 36.29L26.64 25.85L30.11 25.85L30.11 29.33L30.11 36.29C30.11 37.25 29.33 38.03 28.37 38.03ZM38.8 34.55L33.59 34.55L33.59 31.07L38.8 31.07C39.76 31.07 40.54 31.84 40.54 32.81C40.54 33.77 39.76 34.55 38.8 34.55Z" />
				</g>
			</g>
		</g>
	</g>
</svg>