<svg xmlns="http://www.w3.org/2000/svg" viewBox="0 0 46 43" width="46" height="43">
	<style>
		tspan { white-space:pre }
		.shp0 { fill: #ffffff } 
	</style>
	<g id="feature">
		<g id="items">
			<g id="row">
				<g id="col ">
					<path id="icon" class="shp0" d="M41.2 1.49L8.44 1.49C6.43 1.49 4.8 3.12 4.8 5.13L4.8 6.95C2.79 6.95 1.16 8.58 1.16 10.59L1.16 14.22C1.16 16.23 2.79 17.86 4.8 17.86L4.8 25.14C2.79 25.14 1.16 26.76 1.16 28.77L1.16 32.41C1.16 34.42 2.79 36.05 4.8 36.05L4.8 37.86C4.8 39.87 6.43 41.5 8.44 41.5L41.2 41.5C43.21 41.5 44.84 39.87 44.84 37.86L44.84 5.13C44.84 3.12 43.21 1.49 41.2 1.49ZM4.8 10.59L6.62 10.59L8.44 10.59L8.44 14.22L6.62 14.22L4.8 14.22L4.8 10.59ZM4.8 28.77L6.62 28.77L8.44 28.77L8.44 32.41L6.62 32.41L4.8 32.41L4.8 28.77ZM41.2 37.86L8.44 37.86L8.44 36.05C10.45 36.05 12.08 34.42 12.08 32.41L12.08 28.77C12.08 26.76 10.45 25.14 8.44 25.14L8.44 17.86C10.45 17.86 12.08 16.23 12.08 14.22L12.08 10.59C12.08 8.58 10.45 6.95 8.44 6.95L8.44 5.13L41.2 5.13L41.2 37.86ZM21.18 30.59C26.2 30.59 30.28 26.52 30.28 21.5C30.28 16.48 26.2 12.41 21.18 12.41C16.16 12.41 12.08 16.48 12.08 21.5C12.08 26.52 16.16 30.59 21.18 30.59ZM19.36 16.36L19.36 17.86C19.36 18.87 20.18 19.68 21.18 19.68C22.19 19.68 23 18.87 23 17.86L23 16.36C24.55 16.9 25.78 18.13 26.33 19.68L24.82 19.68C23.81 19.68 23 20.49 23 21.5C23 22.5 23.81 23.32 24.82 23.32L26.33 23.32C25.78 24.87 24.55 26.09 23 26.64L23 25.14C23 24.13 22.19 23.32 21.18 23.32C20.18 23.32 19.36 24.13 19.36 25.14L19.36 26.64C17.81 26.09 16.58 24.87 16.03 23.32L17.54 23.32C18.55 23.32 19.36 22.5 19.36 21.5C19.36 20.49 18.55 19.68 17.54 19.68L16.03 19.68C16.58 18.13 17.81 16.9 19.36 16.36ZM35.74 30.59L37.56 30.59C38.56 30.59 39.38 29.78 39.38 28.77C39.38 27.77 38.56 26.95 37.56 26.95L35.74 26.95L35.74 14.22L37.56 14.22C38.56 14.22 39.38 13.41 39.38 12.41C39.38 11.4 38.56 10.59 37.56 10.59L35.74 10.59C33.73 10.59 32.1 12.22 32.1 14.22L32.1 26.95C32.1 28.96 33.73 30.59 35.74 30.59Z" />
				</g>
			</g>
		</g>
	</g>
</svg>