<svg xmlns="http://www.w3.org/2000/svg" viewBox="0 0 42 42" width="42" height="42">
	<style>
		tspan { white-space:pre }
		.shp0 { fill: #ffffff } 
	</style>
	<g id="feature">
		<g id="items">
			<g id="row">
				<g id="col ">
					<path id="icon" class="shp0" d="M7.67 30.99C6.67 30.99 6.01 31.66 6.01 32.66C6.01 33.66 6.67 34.33 7.67 34.33C8.67 34.33 9.34 33.66 9.34 32.66C9.34 31.66 8.67 30.99 7.67 30.99ZM17.67 35.99C16.67 35.99 16 36.66 16 37.66C16 38.66 16.67 39.32 17.67 39.32C18.67 39.32 19.33 38.66 19.33 37.66C19.33 36.66 18.67 35.99 17.67 35.99ZM24.33 35.99C23.33 35.99 22.67 36.66 22.67 37.66C22.67 38.66 23.33 39.32 24.33 39.32C25.33 39.32 26 38.66 26 37.66C26 36.66 25.33 35.99 24.33 35.99ZM34.33 30.99C33.33 30.99 32.66 31.66 32.66 32.66C32.66 33.66 33.33 34.33 34.33 34.33C35.33 34.33 35.99 33.66 35.99 32.66C35.99 31.66 35.33 30.99 34.33 30.99ZM12.67 1.01L2.67 1.01C1.67 1.01 1.01 1.67 1.01 2.67L1.01 12.67C1.01 13.67 1.67 14.33 2.67 14.33C3.67 14.33 4.34 13.67 4.34 12.67L4.34 4.34L12.67 4.34C13.67 4.34 14.34 3.67 14.34 2.67C14.34 1.67 13.67 1.01 12.67 1.01ZM39.33 1.01L29.33 1.01C28.33 1.01 27.66 1.67 27.66 2.67C27.66 3.67 28.33 4.34 29.33 4.34L37.66 4.34L37.66 12.67C37.66 13.67 38.33 14.33 39.33 14.33C40.33 14.33 40.99 13.67 40.99 12.67L40.99 2.67C40.99 1.67 40.33 1.01 39.33 1.01ZM39.33 27.66C38.33 27.66 37.66 28.33 37.66 29.33L37.66 37.66L29.33 37.66C28.33 37.66 27.66 38.32 27.66 39.32C27.66 40.32 28.33 40.99 29.33 40.99L39.33 40.99C40.33 40.99 40.99 40.32 40.99 39.32L40.99 29.33C40.99 28.33 40.33 27.66 39.33 27.66ZM12.67 37.66L4.34 37.66L4.34 29.33C4.34 28.33 3.67 27.66 2.67 27.66C1.67 27.66 1.01 28.33 1.01 29.33L1.01 39.32C1.01 40.32 1.67 40.99 2.67 40.99L12.67 40.99C13.67 40.99 14.34 40.32 14.34 39.32C14.34 38.32 13.67 37.66 12.67 37.66ZM22.33 23.33C22.17 22 22 21.17 22 20.83C21.83 20 20.83 19.33 20 19.67C19 19.83 18.5 20.67 18.67 21.67C18.67 22 18.83 22.66 19 23.83C19.17 26 19.33 29 19.33 32.66C19.33 33.66 20 34.33 21 34.33C22 34.33 22.67 33.66 22.67 32.66C22.67 28.83 22.5 25.66 22.33 23.33ZM36.16 22.33C35.83 19.67 35.33 17.17 34.5 15.17C32 9.67 26.5 6 20.33 6C18.33 6 16.33 6.34 14.5 7.17C13.67 7.5 13.17 8.5 13.5 9.34C14 10.17 14.84 10.67 15.67 10.17C17.17 9.67 18.67 9.34 20.33 9.34C25.16 9.34 29.33 12.17 31.33 16.5C32 18.17 32.5 20.33 32.83 22.66C33 23.5 33.66 24.33 34.66 24.16C35.66 24 36.33 23.33 36.16 22.33ZM11.5 10.67C10.84 10 9.84 10 9.17 10.67C6.67 13 6.17 15.5 6.01 21C6.01 22 6.67 22.66 7.67 22.66C8.67 22.66 9.34 22 9.34 21.16C9.5 16.5 9.84 14.5 11.5 13C12.17 12.33 12.17 11.34 11.5 10.67ZM16.5 17.17C17.17 16.5 17.17 15.5 16.5 14.83C15.83 14.17 14.67 14.17 14 14.83C12.34 16.5 11.5 18.67 11.5 21C11.5 22 11.67 23 11.84 24C12.17 25.5 12.67 28.66 12.67 32.66C12.67 33.66 13.5 34.33 14.34 34.33C15.17 34.33 16 33.49 16 32.66C16 30.16 15.83 28 15.5 26C15.34 24.66 15.17 23.66 15 23.16C14.84 22.5 14.67 21.83 14.84 21.16C14.84 19.67 15.5 18.17 16.5 17.17ZM30.16 23.5C30.16 23.16 29.83 22 29.83 22C29.66 21.5 29.66 21.16 29.5 20.67C29.33 19.5 29 18.5 28.5 17.5C27.16 14.17 23.83 12 20.33 12C19.33 12 18.67 12.67 18.67 13.67C18.67 14.67 19.33 15.33 20.33 15.33C22.67 15.33 24.67 16.67 25.5 18.83C25.83 19.67 26 20.33 26.16 21.16C26.16 21.5 26.33 22 26.5 22.5C26.5 22.5 26.83 23.66 26.83 24C27.33 26.33 27.66 28.16 27.66 30.83C27.66 31.83 28.5 32.49 29.33 32.49C30.33 32.49 31 31.66 31 30.83C31 28.16 30.66 26 30.16 23.5Z" />
				</g>
			</g>
		</g>
	</g>
</svg>