<svg xmlns="http://www.w3.org/2000/svg" viewBox="0 0 44 43" width="44" height="43">
	<style>
		tspan { white-space:pre }
		.shp0 { fill: #ffffff } 
	</style>
	<g id="feature">
		<g id="items">
			<g id="row">
				<g id="col">
					<path id="icon" class="shp0" d="M16.07 8.54C15.15 8.54 14.41 9.28 14.41 10.2C14.41 11.12 15.15 11.87 16.07 11.87C16.99 11.87 17.74 11.12 17.74 10.2C17.74 9.28 16.99 8.54 16.07 8.54ZM16.07 18.54C15.15 18.54 14.41 19.29 14.41 20.21C14.41 21.13 15.15 21.87 16.07 21.87C16.99 21.87 17.74 21.13 17.74 20.21C17.74 19.29 16.99 18.54 16.07 18.54ZM12.74 16.87C13.66 16.87 14.41 16.13 14.41 15.21C14.41 14.29 13.66 13.54 12.74 13.54C11.82 13.54 11.08 14.29 11.08 15.21C11.08 16.13 11.82 16.87 12.74 16.87ZM12.74 23.54C11.82 23.54 11.08 24.29 11.08 25.21C11.08 26.13 11.82 26.87 12.74 26.87C13.66 26.87 14.41 26.13 14.41 25.21C14.41 24.29 13.66 23.54 12.74 23.54ZM9.41 18.54C8.49 18.54 7.74 19.29 7.74 20.21C7.74 21.13 8.49 21.87 9.41 21.87C10.33 21.87 11.08 21.13 11.08 20.21C11.08 19.29 10.33 18.54 9.41 18.54ZM16.07 28.54C15.15 28.54 14.41 29.29 14.41 30.21C14.41 31.13 15.15 31.87 16.07 31.87C16.99 31.87 17.74 31.13 17.74 30.21C17.74 29.29 16.99 28.54 16.07 28.54ZM38.07 22.42L35.63 19.64C35.23 19.18 34.6 18.98 34.02 19.11C34.27 17.61 34.4 16.13 34.4 14.68L34.4 8.54C34.4 7.74 33.84 7.06 33.06 6.9L32.04 6.7C27.33 5.76 22.77 4.19 18.48 2.05C18.02 1.81 17.46 1.81 17 2.05C12.71 4.19 8.14 5.76 3.44 6.7L2.42 6.9C1.64 7.06 1.08 7.74 1.08 8.54L1.08 14.68C1.08 21.91 3.89 28.71 9.01 33.83L16.56 41.39C16.89 41.71 17.31 41.88 17.74 41.88C18.17 41.88 18.59 41.71 18.92 41.39L21.58 38.72C23.7 40.72 26.52 41.86 29.45 41.88L29.53 41.88C32.81 41.88 35.95 40.48 38.15 38.04C42.08 33.67 42.05 26.95 38.07 22.42ZM17.74 37.85L11.37 31.47C7.05 27.16 4.6 21.47 4.42 15.4C4.52 16.23 5.22 16.87 6.08 16.87C7 16.87 7.74 16.13 7.74 15.21C7.74 14.29 7 13.54 6.08 13.54C5.19 13.54 4.47 14.23 4.42 15.1C4.41 14.96 4.41 14.82 4.41 14.68L4.41 9.9C5.72 9.63 7.02 9.32 8.31 8.95C7.96 9.26 7.74 9.71 7.74 10.2C7.74 11.12 8.49 11.87 9.41 11.87C10.33 11.87 11.08 11.12 11.08 10.2C11.08 9.37 10.46 8.68 9.66 8.56C12.43 7.71 15.13 6.65 17.74 5.39C21.98 7.44 26.46 8.95 31.07 9.9L31.07 14.43C31.06 14.42 31.04 14.41 31.03 14.39C30.98 14.34 30.93 14.29 30.87 14.25L30.45 13.91C30.36 13.84 30.26 13.77 30.17 13.72C29.49 13.37 28.63 13.53 28.12 14.14L27.49 14.9L25.89 16.82C24.03 18.95 22.89 21.36 22.47 24.05C22.22 23.68 21.82 23.43 21.36 23.36C20.7 23.26 20.05 23.56 19.7 24.12C19.69 24.13 19.68 24.15 19.67 24.16C19.62 24.24 19.57 24.33 19.52 24.41C19.51 24.44 19.49 24.47 19.47 24.5C19.42 24.59 19.37 24.68 19.32 24.77C19.3 24.81 19.29 24.83 19.27 24.86C19.22 24.96 19.17 25.06 19.12 25.16C19.11 25.17 19.11 25.19 19.1 25.2C19.05 25.3 19.01 25.4 18.96 25.5C18.96 25.51 18.95 25.53 18.94 25.54C18.89 25.65 18.85 25.77 18.8 25.88C18.8 25.89 18.79 25.9 18.79 25.91C17.45 29.22 17.72 33.01 19.5 36.09L17.74 37.85ZM35.67 35.81C34.1 37.55 31.87 38.54 29.53 38.54L29.47 38.54C27.12 38.53 24.87 37.5 23.31 35.73C23.26 35.66 23.2 35.59 23.14 35.53C23.1 35.44 23.05 35.35 22.98 35.27C21.66 33.54 21.1 31.37 21.34 29.29C22.17 30.44 22.98 31.18 23.26 31.42C23.65 31.79 24.2 31.97 24.76 31.85C25.19 31.75 25.57 31.49 25.81 31.11C25.98 30.85 26.07 30.55 26.07 30.24C26.07 30.23 26.07 30.21 26.07 30.2C26.07 30.17 26.07 30.15 26.07 30.12C26.07 30.12 26.07 30.12 26.07 30.11C26.06 30.02 26.05 29.94 26.03 29.85C25.3 26.53 25.57 23.69 26.87 21.23C27.28 20.44 27.8 19.7 28.42 18.99L28.57 18.81L29.29 17.94C29.78 18.87 30.2 19.81 30.53 20.76C30.54 20.79 30.55 20.82 30.57 20.85C31.18 22.63 31.5 24.41 31.5 26.18C31.5 26.99 32.07 27.68 32.87 27.82C33.65 27.96 34.44 27.52 34.72 26.76C34.75 26.7 35.07 25.81 35.41 24.44L35.57 24.62C38.43 27.88 38.47 32.69 35.67 35.81Z" />
				</g>
			</g>
		</g>
	</g>
</svg>